<svg width="221" height="23" viewBox="0 0 221 23" fill="none" xmlns="http://www.w3.org/2000/svg">
<path d="M17.52 7.57C16.8 6.71 15.95 6.04 14.97 5.56C14.01 5.06 13.04 4.81 12.06 4.81C10.88 4.81 9.8 5.1 8.82 5.68C7.84 6.26 7.07 7.05 6.51 8.05C5.95 9.05 5.67 10.16 5.67 11.38C5.67 12.6 5.95 13.72 6.51 14.74C7.07 15.74 7.84 16.54 8.82 17.14C9.8 17.72 10.88 18.01 12.06 18.01C13 18.01 13.95 17.79 14.91 17.35C15.89 16.89 16.76 16.28 17.52 15.52L20.31 18.55C19.19 19.71 17.87 20.63 16.35 21.31C14.85 21.99 13.34 22.33 11.82 22.33C9.76 22.33 7.89 21.86 6.21 20.92C4.53 19.96 3.21 18.65 2.25 16.99C1.29 15.33 0.81 13.48 0.81 11.44C0.81 9.42 1.3 7.59 2.28 5.95C3.26 4.31 4.6 3.02 6.3 2.08C8.02 1.14 9.92 0.669999 12 0.669999C13.52 0.669999 15.02 0.989999 16.5 1.63C17.98 2.25 19.24 3.1 20.28 4.18L17.52 7.57ZM32.5392 0.669999C34.6392 0.669999 36.5492 1.14 38.2692 2.08C39.9892 3.02 41.3392 4.32 42.3192 5.98C43.3192 7.62 43.8192 9.45 43.8192 11.47C43.8192 13.49 43.3192 15.33 42.3192 16.99C41.3392 18.65 39.9892 19.96 38.2692 20.92C36.5492 21.86 34.6392 22.33 32.5392 22.33C30.4392 22.33 28.5292 21.86 26.8092 20.92C25.0892 19.96 23.7292 18.66 22.7292 17.02C21.7492 15.36 21.2592 13.51 21.2592 11.47C21.2592 9.45 21.7492 7.62 22.7292 5.98C23.7292 4.32 25.0792 3.02 26.7792 2.08C28.4992 1.14 30.4192 0.669999 32.5392 0.669999ZM32.5992 4.81C31.4392 4.81 30.3592 5.11 29.3592 5.71C28.3592 6.29 27.5692 7.09 26.9892 8.11C26.4092 9.13 26.1192 10.25 26.1192 11.47C26.1192 12.71 26.4092 13.84 26.9892 14.86C27.5892 15.88 28.3792 16.69 29.3592 17.29C30.3592 17.89 31.4392 18.19 32.5992 18.19C33.7592 18.19 34.8192 17.9 35.7792 17.32C36.7592 16.72 37.5292 15.91 38.0892 14.89C38.6692 13.85 38.9592 12.71 38.9592 11.47C38.9592 10.25 38.6692 9.13 38.0892 8.11C37.5292 7.09 36.7592 6.29 35.7792 5.71C34.8192 5.11 33.7592 4.81 32.5992 4.81ZM51.3091 13.33C51.3091 14.83 51.7291 16.02 52.5691 16.9C53.4291 17.76 54.5691 18.19 55.9891 18.19C57.3691 18.19 58.4691 17.76 59.2891 16.9C60.1091 16.04 60.5191 14.85 60.5191 13.33V0.999999H65.2591V13.33C65.2591 15.17 64.8791 16.77 64.1191 18.13C63.3791 19.47 62.3091 20.51 60.9091 21.25C59.5091 21.97 57.8591 22.33 55.9591 22.33C54.0591 22.33 52.3991 21.97 50.9791 21.25C49.5591 20.51 48.4691 19.47 47.7091 18.13C46.9491 16.77 46.5691 15.17 46.5691 13.33V0.999999H51.3091V13.33ZM84.037 0.999999H88.537V22H84.217L74.047 8.5V22H69.517V0.999999H73.837L84.037 14.56V0.999999ZM91.0896 0.999999H108.64V5.02H102.22V22H97.4796V5.02H91.0896V0.999999ZM124.077 22L120.747 16H120.297H115.917V22H111.177V0.999999H120.297C123.037 0.999999 125.157 1.64 126.657 2.92C128.157 4.18 128.907 5.97 128.907 8.29C128.907 9.91 128.567 11.3 127.887 12.46C127.227 13.6 126.257 14.47 124.977 15.07L129.447 22H124.077ZM115.917 12.04H120.297C121.617 12.04 122.627 11.74 123.327 11.14C124.047 10.52 124.407 9.62 124.407 8.44C124.407 7.28 124.047 6.41 123.327 5.83C122.627 5.23 121.617 4.93 120.297 4.93H115.917V12.04ZM150.441 0.999999L142.791 15.22V22H138.051V15.34L130.281 0.999999H135.051L140.421 10.42L145.671 0.999999H150.441ZM175.203 22L173.553 17.92H163.833L162.183 22H157.293L166.413 0.999999H171.303L180.273 22H175.203ZM165.393 14.11H172.023L168.723 5.95L165.393 14.11ZM191.366 0.999999C194.046 0.999999 196.116 1.64 197.576 2.92C199.036 4.18 199.766 5.97 199.766 8.29C199.766 10.73 199.026 12.63 197.546 13.99C196.086 15.33 194.026 16 191.366 16H187.196V22H182.456V0.999999H191.366ZM191.126 12.04C192.466 12.04 193.486 11.74 194.186 11.14C194.906 10.52 195.266 9.62 195.266 8.44C195.266 7.28 194.906 6.41 194.186 5.83C193.486 5.23 192.466 4.93 191.126 4.93H187.196V12.04H191.126ZM211.699 0.999999C214.379 0.999999 216.449 1.64 217.909 2.92C219.369 4.18 220.099 5.97 220.099 8.29C220.099 10.73 219.359 12.63 217.879 13.99C216.419 15.33 214.359 16 211.699 16H207.529V22H202.789V0.999999H211.699ZM211.459 12.04C212.799 12.04 213.819 11.74 214.519 11.14C215.239 10.52 215.599 9.62 215.599 8.44C215.599 7.28 215.239 6.41 214.519 5.83C213.819 5.23 212.799 4.93 211.459 4.93H207.529V12.04H211.459Z" fill="#1D1E44"/>
</svg>
